<svg width="12" height="12" viewBox="0 0 12 12" fill="none" xmlns="http://www.w3.org/2000/svg">
<path d="M5.00018 4V3C5.00018 2.73478 5.10554 2.48043 5.29308 2.29289C5.48061 2.10536 5.73497 2 6.00018 2H9.50018C9.7654 2 10.0198 2.10536 10.2073 2.29289C10.3948 2.48043 10.5002 2.73478 10.5002 3V9C10.5002 9.26522 10.3948 9.51957 10.2073 9.70711C10.0198 9.89464 9.7654 10 9.50018 10H6.00018C5.73497 10 5.48061 9.89464 5.29308 9.70711C5.10554 9.51957 5.00018 9.26522 5.00018 9V8" stroke="#2AB070" stroke-width="0.75" stroke-linecap="round" stroke-linejoin="round"/>
<path d="M1.99994 5.99994H8.49994M8.49994 5.99994L6.99994 4.49994M8.49994 5.99994L6.99994 7.49994" stroke="#2AB070" stroke-width="0.75" stroke-linecap="round" stroke-linejoin="round"/>
</svg>
