<svg width="13" height="12" viewBox="0 0 13 12" fill="none" xmlns="http://www.w3.org/2000/svg">
<path d="M7.5 4V3C7.5 2.73478 7.39464 2.48043 7.20711 2.29289C7.01957 2.10536 6.76522 2 6.5 2H3C2.73478 2 2.48043 2.10536 2.29289 2.29289C2.10536 2.48043 2 2.73478 2 3V9C2 9.26522 2.10536 9.51957 2.29289 9.70711C2.48043 9.89464 2.73478 10 3 10H6.5C6.76522 10 7.01957 9.89464 7.20711 9.70711C7.39464 9.51957 7.5 9.26522 7.5 9V8" stroke="#E22828" stroke-width="0.75" stroke-linecap="round" stroke-linejoin="round"/>
<path d="M4 6H11M11 6L9.5 4.5M11 6L9.5 7.5" stroke="#E22828" stroke-width="0.75" stroke-linecap="round" stroke-linejoin="round"/>
</svg>
