<svg width="33" height="16" viewBox="0 0 33 16" fill="none" xmlns="http://www.w3.org/2000/svg">
<path d="M0.125 4C0.125 1.79086 1.91586 0 4.125 0H32.125V16H4.125C1.91586 16 0.125 14.2091 0.125 12V4Z" fill="#F8FAFD"/>
<path d="M5.89258 12V6.53613H5.9707L9.79395 12H10.6484V4.9541H9.7793V10.4375H9.70117L5.87793 4.9541H5.02344V12H5.89258ZM16.8105 11.209H13.3242V8.78711H16.6299V8.00586H13.3242V5.74512H16.8105V4.9541H12.4453V12H16.8105V11.209ZM22.3135 6.43848H22.3721L23.9932 12H24.8232L26.7422 4.9541H25.8242L24.4229 10.6816H24.3643L22.7871 4.9541H21.8984L20.3213 10.6816H20.2627L18.8613 4.9541H17.9434L19.8623 12H20.6924L22.3135 6.43848Z" fill="#2C78F6"/>
</svg>
