<svg width="24" height="24" viewBox="0 0 24 24" fill="none" xmlns="http://www.w3.org/2000/svg">
<path d="M21.8906 5.57746V2.14621C21.8906 1.6721 21.5076 1.28906 21.0335 1.28906H2.92636C2.45225 1.28906 2.06921 1.6721 2.06921 2.14621V5.57746C1.62189 5.60424 1.26564 5.97656 1.26564 6.43192V9.9596C1.26393 10.6079 1.3952 11.2497 1.65136 11.8453C1.76653 12.1185 1.9085 12.3757 2.06921 12.6194V21.8605C2.06921 22.3319 2.45225 22.7176 2.92636 22.7176H21.0335C21.5076 22.7176 21.8906 22.3346 21.8906 21.8605V12.6194C22.0539 12.3751 22.1938 12.1159 22.3085 11.8453C22.563 11.248 22.6942 10.6132 22.6942 9.9596V6.43192C22.6942 5.97656 22.338 5.60424 21.8906 5.57746ZM3.99778 3.21763H19.9621V5.57478H3.99778V3.21763ZM13.6942 20.7917H10.2656V18.0033H13.6942V20.7917ZM19.9621 20.7917H15.4085V17.1462C15.4085 16.6721 15.0255 16.2891 14.5514 16.2891H9.4085C8.93439 16.2891 8.55136 16.6721 8.55136 17.1462V20.7917H3.99778V14.3042C4.07546 14.3417 4.15582 14.3792 4.23886 14.4114C4.83618 14.6632 5.471 14.7891 6.12457 14.7891C6.77814 14.7891 7.41028 14.6632 8.01028 14.4114C8.37993 14.256 8.72814 14.0578 9.04689 13.8194C9.05225 13.8167 9.05761 13.8167 9.06296 13.8194C9.3827 14.0588 9.7309 14.2577 10.0996 14.4114C10.6969 14.6632 11.3317 14.7891 11.9853 14.7891C12.6389 14.7891 13.271 14.6632 13.871 14.4114C14.2406 14.256 14.5889 14.0578 14.9076 13.8194C14.913 13.8167 14.9183 13.8167 14.9237 13.8194C15.2434 14.0588 15.5916 14.2577 15.9603 14.4114C16.5576 14.6632 17.1924 14.7891 17.846 14.7891C18.4996 14.7891 19.1317 14.6632 19.7317 14.4114C19.8121 14.3766 19.8924 14.3417 19.9728 14.3042V20.7917H19.9621ZM20.7656 9.9596C20.7656 11.5614 19.4531 12.8605 17.838 12.8605C16.7451 12.8605 15.7915 12.2685 15.288 11.39C15.2103 11.256 15.071 11.173 14.9156 11.173H14.8996C14.7469 11.173 14.6049 11.256 14.5272 11.39C14.2703 11.8381 13.8992 12.2103 13.4518 12.4686C13.0044 12.7268 12.4965 12.8621 11.9799 12.8605C10.8897 12.8605 9.93886 12.2712 9.43528 11.3953C9.35493 11.2587 9.21029 11.173 9.05225 11.173C8.89421 11.173 8.74689 11.2587 8.66921 11.3953C8.41073 11.8418 8.0392 12.2122 7.59201 12.4695C7.14483 12.7267 6.63777 12.8615 6.12189 12.8605C4.50671 12.8605 3.19421 11.5614 3.19421 9.9596V7.51674C3.19421 7.50871 3.19957 7.50335 3.20761 7.50335H20.7523C20.7603 7.50335 20.7656 7.50871 20.7656 7.51674V9.9596Z" fill="#808080"/>
</svg>
