<svg width="24" height="24" viewBox="0 0 24 24" fill="none" xmlns="http://www.w3.org/2000/svg">
<path d="M22.1933 6.14531L17.8379 1.78996C17.6371 1.58906 17.3906 1.44174 17.1228 1.36138V1.28906H2.12277C1.64866 1.28906 1.26562 1.6721 1.26562 2.14621V21.8605C1.26562 22.3346 1.64866 22.7176 2.12277 22.7176H21.8371C22.3112 22.7176 22.6942 22.3346 22.6942 21.8605V7.35603C22.6942 6.90067 22.5147 6.46674 22.1933 6.14531ZM8.55134 3.21763H15.4085V6.00335H8.55134V3.21763ZM20.7656 20.7891H3.1942V3.21763H6.83705V6.86049C6.83705 7.3346 7.22009 7.71763 7.6942 7.71763H16.2656C16.7397 7.71763 17.1228 7.3346 17.1228 6.86049V3.80156L20.7656 7.44442V20.7891ZM11.9799 10.1283C9.85045 10.1283 8.12277 11.856 8.12277 13.9855C8.12277 16.115 9.85045 17.8426 11.9799 17.8426C14.1094 17.8426 15.8371 16.115 15.8371 13.9855C15.8371 11.856 14.1094 10.1283 11.9799 10.1283ZM11.9799 16.1283C10.796 16.1283 9.83705 15.1694 9.83705 13.9855C9.83705 12.8016 10.796 11.8426 11.9799 11.8426C13.1638 11.8426 14.1228 12.8016 14.1228 13.9855C14.1228 15.1694 13.1638 16.1283 11.9799 16.1283Z" fill="#808080"/>
</svg>
