<svg width="24" height="24" viewBox="0 0 24 24" fill="none" xmlns="http://www.w3.org/2000/svg">
<path d="M22.0681 19.495H3.63951V2.78069C3.63951 2.66283 3.54308 2.56641 3.42522 2.56641H1.92522C1.80737 2.56641 1.71094 2.66283 1.71094 2.78069V21.2093C1.71094 21.3271 1.80737 21.4236 1.92522 21.4236H22.0681C22.1859 21.4236 22.2824 21.3271 22.2824 21.2093V19.7093C22.2824 19.5914 22.1859 19.495 22.0681 19.495ZM5.99665 17.3521H7.49665C7.61451 17.3521 7.71094 17.2557 7.71094 17.1378V13.2807C7.71094 13.1628 7.61451 13.0664 7.49665 13.0664H5.99665C5.8788 13.0664 5.78237 13.1628 5.78237 13.2807V17.1378C5.78237 17.2557 5.8788 17.3521 5.99665 17.3521ZM10.0681 17.3521H11.5681C11.6859 17.3521 11.7824 17.2557 11.7824 17.1378V8.56641C11.7824 8.44855 11.6859 8.35212 11.5681 8.35212H10.0681C9.95022 8.35212 9.8538 8.44855 9.8538 8.56641V17.1378C9.8538 17.2557 9.95022 17.3521 10.0681 17.3521ZM14.1395 17.3521H15.6395C15.7574 17.3521 15.8538 17.2557 15.8538 17.1378V10.6557C15.8538 10.5378 15.7574 10.4414 15.6395 10.4414H14.1395C14.0217 10.4414 13.9252 10.5378 13.9252 10.6557V17.1378C13.9252 17.2557 14.0217 17.3521 14.1395 17.3521ZM18.2109 17.3521H19.7109C19.8288 17.3521 19.9252 17.2557 19.9252 17.1378V6.42355C19.9252 6.30569 19.8288 6.20926 19.7109 6.20926H18.2109C18.0931 6.20926 17.9967 6.30569 17.9967 6.42355V17.1378C17.9967 17.2557 18.0931 17.3521 18.2109 17.3521Z" fill="#808080"/>
</svg>
