<svg width="24" height="24" viewBox="0 0 24 24" fill="none" xmlns="http://www.w3.org/2000/svg">
<path d="M10.7009 2.14453H2.55804C2.32232 2.14453 2.12946 2.33739 2.12946 2.5731V10.716C2.12946 10.9517 2.32232 11.1445 2.55804 11.1445H10.7009C10.9366 11.1445 11.1295 10.9517 11.1295 10.716V2.5731C11.1295 2.33739 10.9366 2.14453 10.7009 2.14453ZM9.30804 9.3231H3.95089V3.96596H9.30804V9.3231ZM21.4152 2.14453H13.2723C13.0366 2.14453 12.8438 2.33739 12.8438 2.5731V10.716C12.8438 10.9517 13.0366 11.1445 13.2723 11.1445H21.4152C21.6509 11.1445 21.8438 10.9517 21.8438 10.716V2.5731C21.8438 2.33739 21.6509 2.14453 21.4152 2.14453ZM20.0223 9.3231H14.6652V3.96596H20.0223V9.3231ZM21.4152 12.8588H13.2723C13.0366 12.8588 12.8438 13.0517 12.8438 13.2874V21.4302C12.8438 21.666 13.0366 21.8588 13.2723 21.8588H21.4152C21.6509 21.8588 21.8438 21.666 21.8438 21.4302V13.2874C21.8438 13.0517 21.6509 12.8588 21.4152 12.8588ZM20.0223 20.0374H14.6652V14.6802H20.0223V20.0374ZM9.62947 17.3588H6.20089V13.9302C6.20089 13.8124 6.10446 13.716 5.98661 13.716H4.70089C4.58304 13.716 4.48661 13.8124 4.48661 13.9302V17.3588H1.05804C0.940179 17.3588 0.84375 17.4552 0.84375 17.5731V18.8588C0.84375 18.9767 0.940179 19.0731 1.05804 19.0731H4.48661V22.5017C4.48661 22.6195 4.58304 22.716 4.70089 22.716H5.98661C6.10446 22.716 6.20089 22.6195 6.20089 22.5017V19.0731H9.62947C9.74732 19.0731 9.84375 18.9767 9.84375 18.8588V17.5731C9.84375 17.4552 9.74732 17.3588 9.62947 17.3588Z" fill="#808080"/>
</svg>
