<svg width="24" height="24" viewBox="0 0 24 24" fill="none" xmlns="http://www.w3.org/2000/svg">
<path d="M23.0759 15.0496L21.3214 13.5496C21.4045 13.0406 21.4473 12.521 21.4473 12.0013C21.4473 11.4817 21.4045 10.9621 21.3214 10.4531L23.0759 8.95312C23.2082 8.83984 23.3029 8.68895 23.3474 8.52053C23.3919 8.35211 23.3841 8.17413 23.325 8.01027L23.3009 7.94062C22.8179 6.5907 22.0946 5.33929 21.1661 4.24687L21.1179 4.19063C21.0052 4.05818 20.8551 3.96296 20.6872 3.91754C20.5194 3.87211 20.3418 3.87861 20.1777 3.93616L18 4.71027C17.1964 4.05134 16.2991 3.5317 15.3295 3.16741L14.9089 0.890625C14.8772 0.719309 14.7941 0.561703 14.6707 0.438744C14.5472 0.315785 14.3893 0.233295 14.2179 0.202232L14.1455 0.188839C12.75 -0.0629464 11.2821 -0.0629464 9.88661 0.188839L9.81429 0.202232C9.64285 0.233295 9.48492 0.315785 9.36149 0.438744C9.23805 0.561703 9.15495 0.719309 9.12322 0.890625L8.7 3.17813C7.7381 3.54249 6.84233 4.06185 6.04822 4.71562L3.85447 3.93616C3.69045 3.87815 3.51266 3.87142 3.34472 3.91687C3.17679 3.96233 3.02666 4.05781 2.91429 4.19063L2.86608 4.24687C1.93861 5.34006 1.21548 6.59126 0.731255 7.94062L0.707148 8.01027C0.586613 8.34509 0.68572 8.72009 0.956255 8.95312L2.73215 10.4692C2.64911 10.9728 2.60893 11.4871 2.60893 11.9987C2.60893 12.5129 2.64911 13.0272 2.73215 13.5281L0.956255 15.0442C0.823923 15.1575 0.72921 15.3084 0.684713 15.4768C0.640215 15.6452 0.64804 15.8232 0.707148 15.9871L0.731255 16.0567C1.21608 17.4067 1.93393 18.6522 2.86608 19.7504L2.91429 19.8067C3.02694 19.9391 3.17707 20.0344 3.3449 20.0798C3.51274 20.1252 3.6904 20.1187 3.85447 20.0612L6.04822 19.2817C6.84643 19.9379 7.7384 20.4576 8.7 20.8192L9.12322 23.1067C9.15495 23.278 9.23805 23.4356 9.36149 23.5586C9.48492 23.6815 9.64285 23.764 9.81429 23.7951L9.88661 23.8085C11.295 24.0616 12.7372 24.0616 14.1455 23.8085L14.2179 23.7951C14.3893 23.764 14.5472 23.6815 14.6707 23.5586C14.7941 23.4356 14.8772 23.278 14.9089 23.1067L15.3295 20.8299C16.2987 20.4666 17.2011 19.9452 18 19.2871L20.1777 20.0612C20.3417 20.1192 20.5195 20.1259 20.6874 20.0804C20.8554 20.035 21.0055 19.9395 21.1179 19.8067L21.1661 19.7504C22.0982 18.6496 22.8161 17.4067 23.3009 16.0567L23.325 15.9871C23.4455 15.6576 23.3464 15.2826 23.0759 15.0496ZM19.4196 10.7692C19.4866 11.1737 19.5214 11.5888 19.5214 12.004C19.5214 12.4192 19.4866 12.8344 19.4196 13.2388L19.2429 14.3129L21.2438 16.0246C20.9404 16.7234 20.5575 17.3849 20.1027 17.996L17.617 17.1147L16.7759 17.8058C16.1357 18.3308 15.4232 18.7433 14.6518 19.0326L13.6313 19.4156L13.1518 22.0138C12.3953 22.0996 11.6315 22.0996 10.875 22.0138L10.3955 19.4103L9.38304 19.0219C8.61965 18.7326 7.90983 18.3201 7.275 17.7978L6.43393 17.104L3.93215 17.9933C3.47679 17.3799 3.09643 16.7183 2.79108 16.0219L4.8134 14.2942L4.63929 13.2228C4.57501 12.8237 4.54018 12.4112 4.54018 12.004C4.54018 11.5942 4.57233 11.1844 4.63929 10.7853L4.8134 9.71384L2.79108 7.98616C3.09376 7.28705 3.47679 6.62812 3.93215 6.01473L6.43393 6.90402L7.275 6.21027C7.90983 5.68795 8.61965 5.27545 9.38304 4.98616L10.3982 4.60312L10.8777 1.99955C11.6304 1.91384 12.3991 1.91384 13.1545 1.99955L13.6339 4.59777L14.6545 4.9808C15.4232 5.27009 16.1384 5.68259 16.7786 6.20759L17.6196 6.89866L20.1054 6.01741C20.5607 6.6308 20.9411 7.29241 21.2464 7.98884L19.2455 9.70045L19.4196 10.7692ZM12.0188 7.02187C9.41518 7.02187 7.30447 9.13259 7.30447 11.7362C7.30447 14.3397 9.41518 16.4504 12.0188 16.4504C14.6223 16.4504 16.733 14.3397 16.733 11.7362C16.733 9.13259 14.6223 7.02187 12.0188 7.02187ZM14.1402 13.8576C13.8619 14.1366 13.5313 14.3579 13.1672 14.5087C12.8031 14.6595 12.4128 14.7368 12.0188 14.7362C11.2179 14.7362 10.4652 14.4228 9.89733 13.8576C9.61828 13.5793 9.39701 13.2487 9.24623 12.8846C9.09545 12.5205 9.01814 12.1302 9.01875 11.7362C9.01875 10.9353 9.33215 10.1826 9.89733 9.61473C10.4652 9.04688 11.2179 8.73616 12.0188 8.73616C12.8196 8.73616 13.5723 9.04688 14.1402 9.61473C14.4192 9.89298 14.6405 10.2236 14.7913 10.5877C14.9421 10.9518 15.0194 11.3421 15.0188 11.7362C15.0188 12.5371 14.7054 13.2897 14.1402 13.8576Z" fill="#808080"/>
</svg>
