<svg width="24" height="24" viewBox="0 0 24 24" fill="none" xmlns="http://www.w3.org/2000/svg">
<path d="M12 24C5.3724 24 0 18.6276 0 12C0 5.3724 5.3724 0 12 0C18.6276 0 24 5.3724 24 12C24 18.6276 18.6276 24 12 24ZM12 21.6C14.5461 21.6 16.9879 20.5886 18.7882 18.7882C20.5886 16.9879 21.6 14.5461 21.6 12C21.6 9.45392 20.5886 7.01212 18.7882 5.21178C16.9879 3.41143 14.5461 2.4 12 2.4C9.45392 2.4 7.01212 3.41143 5.21178 5.21178C3.41143 7.01212 2.4 9.45392 2.4 12C2.4 14.5461 3.41143 16.9879 5.21178 18.7882C7.01212 20.5886 9.45392 21.6 12 21.6ZM10.8 15.6H13.2V18H10.8V15.6ZM13.2 13.626V14.4H10.8V12.6C10.8 12.2817 10.9264 11.9765 11.1515 11.7515C11.3765 11.5264 11.6817 11.4 12 11.4C12.3409 11.4 12.6748 11.3032 12.9628 11.1208C13.2508 10.9384 13.4811 10.678 13.6269 10.3699C13.7727 10.0618 13.828 9.71856 13.7864 9.38021C13.7448 9.04187 13.6079 8.7223 13.3918 8.45869C13.1757 8.19509 12.8891 7.99828 12.5655 7.89116C12.2418 7.78405 11.8944 7.77104 11.5637 7.85365C11.233 7.93625 10.9325 8.11108 10.6972 8.35778C10.462 8.60448 10.3016 8.91292 10.2348 9.2472L7.8804 8.7756C8.02636 8.0461 8.36341 7.36844 8.85711 6.8119C9.3508 6.25536 9.98342 5.8399 10.6903 5.60798C11.3972 5.37607 12.153 5.33602 12.8804 5.49194C13.6079 5.64785 14.2808 5.99414 14.8306 6.49539C15.3803 6.99664 15.7871 7.63489 16.0093 8.34488C16.2316 9.05487 16.2613 9.81113 16.0954 10.5364C15.9296 11.2616 15.5741 11.9298 15.0654 12.4726C14.5567 13.0155 13.913 13.4135 13.2 13.626Z" fill="#5D5D5D"/>
</svg>
