<svg width="220" height="80" viewBox="0 0 220 80" fill="none" xmlns="http://www.w3.org/2000/svg">
<rect width="220" height="80" fill="white"/>
<path fill-rule="evenodd" clip-rule="evenodd" d="M132.667 42.0877C132.667 44.819 132.659 47.5509 132.67 50.2829C132.679 52.2722 131.95 53.3986 129.714 53.2199C127.083 53.0102 124.414 53.5024 121.804 52.7436C118.138 51.6774 115.88 48.9869 115.78 45.1811C115.674 41.2107 115.738 37.2353 115.739 33.262C115.74 32.1493 115.799 30.9442 117.253 30.8538C118.884 30.7526 119.069 32.0562 119.085 33.2437C119.132 36.8853 119.072 40.5284 119.12 44.1706C119.165 47.6329 121.055 49.6811 124.118 49.705C127.292 49.7304 129.217 47.6179 129.241 44.0264C129.265 40.4668 129.247 36.9075 129.246 33.3473C129.245 32.115 129.4 30.8294 130.958 30.852C132.491 30.875 132.656 32.1792 132.662 33.3956C132.677 36.2925 132.667 39.1899 132.667 42.0877" fill="#2C78F6"/>
<path fill-rule="evenodd" clip-rule="evenodd" d="M159.681 53.2517C155.891 53.2875 152.743 51.4823 151.558 48.6489C151.105 47.564 150.853 46.4537 152.07 45.8409C153.275 45.2342 154.02 46.071 154.652 47.077C156.359 49.7926 159.813 50.6977 162.609 49.2086C163.681 48.6372 164.549 47.8338 164.514 46.5316C164.476 45.1376 163.589 44.2272 162.333 43.8063C161.407 43.4951 160.404 43.3543 159.423 43.2726C157.562 43.1176 155.853 42.6104 154.367 41.4512C151.4 39.1343 151.219 35.2082 153.957 32.6189C157.144 29.6047 162.941 29.9043 165.788 33.2428C166.105 33.6142 166.387 34.0329 166.6 34.4706C167.141 35.5806 167.479 36.792 166.098 37.4751C164.825 38.1039 164.106 37.1609 163.622 36.126C162.48 33.6795 160.373 33.4948 158.152 33.9221C156.712 34.1998 155.522 35.0237 155.527 36.7566C155.532 38.358 156.612 39.0651 157.957 39.4966C158.347 39.6213 158.759 39.6912 159.165 39.7465C159.575 39.8024 159.993 39.792 160.404 39.8393C164.735 40.3325 168.095 43.3543 168.008 46.6699C167.915 50.1975 164.104 53.2104 159.681 53.2517Z" fill="#2C78F6"/>
<path fill-rule="evenodd" clip-rule="evenodd" d="M147.214 39.901C147.215 43.4606 147.201 47.0201 147.223 50.5802C147.23 51.874 146.855 53.0858 145.461 53.107C144.12 53.1286 143.85 51.7905 143.844 50.7133C143.804 43.4294 143.811 36.1439 143.843 28.8589C143.848 27.8112 144.23 26.7879 145.492 26.7593C146.927 26.7266 147.214 27.7851 147.214 28.9729C147.213 32.6159 147.213 36.2583 147.214 39.901" fill="#2C78F6"/>
<path fill-rule="evenodd" clip-rule="evenodd" d="M41.1518 39.7867C41.1518 36.2265 41.1528 32.6665 41.1508 29.1066C41.1504 27.9556 41.3092 26.8217 42.7513 26.7685C44.1764 26.7166 44.5363 27.8308 44.5405 28.9709C44.568 36.2564 44.5683 43.5424 44.5334 50.8275C44.5276 51.975 44.0312 53.1387 42.7416 53.0995C41.4334 53.0595 41.1536 51.8681 41.1528 50.7148C41.1501 47.0718 41.1518 43.4295 41.1518 39.7867" fill="#2C78F6"/>
<path fill-rule="evenodd" clip-rule="evenodd" d="M136.602 39.5532C136.601 36.1661 136.59 32.7778 136.608 29.3896C136.614 28.2351 136.506 26.8648 138.156 26.787C139.807 26.7091 139.894 28.0394 139.897 29.2209C139.917 36.3273 139.909 43.4343 139.902 50.5404C139.901 51.781 139.595 53.1085 138.168 53.0825C136.695 53.0561 136.605 51.6535 136.604 50.4615C136.599 46.825 136.601 43.1897 136.601 39.5532" fill="#2C78F6"/>
<path fill-rule="evenodd" clip-rule="evenodd" d="M61.9562 47.8169C60.0629 48.525 58.3587 49.4106 56.3575 49.1656C50.9684 48.5051 48.2835 45.0502 48.5498 39.0458C48.7765 33.9389 51.903 30.9053 57.1334 30.7677C59.0377 30.7179 60.9464 30.809 62.8487 30.7394C64.5007 30.679 65.403 31.4079 65.4089 33.0271C65.4294 38.321 65.5613 43.6225 65.3176 48.906C65.1391 52.7826 62.6855 55.5054 59.2108 56.4948C56.1162 57.3757 52.0436 55.9823 50.097 53.3558C49.5043 52.5556 48.7458 51.6246 49.451 50.6677C50.954 48.6286 51.879 50.2009 52.8504 51.3574C54.4739 53.2904 56.5175 53.7983 58.8647 52.9327C61.1928 52.0735 62.0814 50.3076 61.9562 47.8169V47.8169ZM56.8608 34.1214C53.7085 34.1485 51.874 36.2339 51.8198 39.8509C51.7672 43.3441 53.9358 45.8354 56.9861 45.7861C60.0019 45.7367 61.999 43.4334 62.0209 39.9771C62.0449 36.2774 60.12 34.0929 56.8608 34.1214Z" fill="#2C78F6"/>
<path fill-rule="evenodd" clip-rule="evenodd" d="M95.8955 32.6026C101.003 29.6607 104.374 29.6235 107.57 32.3151C111.357 35.5045 112.713 41.0962 110.919 46.1249C109.292 50.6878 105.815 53.1597 100.951 53.1951C99.0464 53.2095 97.1389 53.1433 95.2362 53.2136C93.4832 53.2775 92.5096 52.4863 92.4999 50.7789C92.4585 43.4997 92.4707 36.2203 92.4874 28.9409C92.4899 27.7697 92.8733 26.7153 94.2845 26.7672C95.5383 26.8135 95.8707 27.793 95.8906 28.8765C95.9123 30.032 95.8956 31.1878 95.8956 32.6027L95.8955 32.6026ZM102.204 49.6835C105.548 49.6165 108.35 45.9335 108.351 41.6021C108.351 41.4369 108.348 41.2711 108.34 41.1064C108.164 36.9687 105.395 33.7282 102.069 33.7678C98.8762 33.806 96.1511 37.0146 95.9301 40.9994C95.9215 41.1641 95.9292 41.3295 95.9292 41.495C95.8697 45.9289 98.8082 49.7531 102.204 49.6835" fill="#2C78F6"/>
<path fill-rule="evenodd" clip-rule="evenodd" d="M37.1933 45.9462C37.1644 54.4698 38.0837 53.1145 28.8792 53.1836C23.606 53.2236 19.7241 50.1527 18.3972 45.0709C17.0529 39.9252 19.2329 33.8262 23.2482 31.501C28.1788 28.6456 34.0034 31.0845 36.2433 36.888C37.3813 39.8362 37.2007 42.8935 37.1933 45.9462ZM27.7128 33.7743C24.3373 33.6902 21.4847 37.0475 21.3263 41.2906C21.1648 45.6223 24.0223 49.5412 27.4419 49.6793C30.8232 49.8156 33.7935 46.0046 33.774 41.5547C33.7548 37.2585 31.1069 33.8592 27.7128 33.7743Z" fill="#2C78F6"/>
<path fill-rule="evenodd" clip-rule="evenodd" d="M69.4368 42.2215C69.3776 39.3968 70.0157 36.9545 71.4286 34.7231C74.9875 29.1027 82.6928 29.0173 86.3847 34.5597C89.3946 39.0777 89.1645 45.68 85.8482 49.9449C81.6168 55.3873 73.4088 53.9892 70.5289 47.325C69.8003 45.6404 69.3648 43.8796 69.4368 42.2215ZM79.2015 33.778C75.7776 33.6336 72.9982 36.8026 72.7165 41.1711C72.444 45.4002 75.2726 49.4179 78.6991 49.6682C81.9837 49.9088 85.0048 46.2685 85.134 41.9161C85.2645 37.5019 82.6559 33.9235 79.2015 33.778Z" fill="#2C78F6"/>
<path d="M167.699 31.8411C167.699 30.8882 167.919 30.0036 168.358 29.1874C168.801 28.3712 169.412 27.7296 170.19 27.2626C170.974 26.7908 171.818 26.5549 172.724 26.5549C173.63 26.5549 174.472 26.7908 175.25 27.2626C176.029 27.7296 176.637 28.3712 177.076 29.1874C177.519 30.0036 177.741 30.8882 177.741 31.8411C177.741 32.7705 177.529 33.641 177.104 34.4524C176.68 35.2639 176.076 35.9173 175.293 36.4126C174.514 36.9033 173.658 37.1486 172.724 37.1486C171.794 37.1486 170.938 36.9056 170.155 36.4197C169.377 35.9291 168.773 35.278 168.343 34.4666C167.914 33.6551 167.699 32.78 167.699 31.8411ZM168.513 31.8411C168.513 32.6526 168.702 33.4051 169.079 34.0986C169.457 34.7874 169.969 35.3276 170.615 35.7191C171.266 36.1107 171.969 36.3065 172.724 36.3065C173.483 36.3065 174.189 36.1083 174.84 35.7121C175.491 35.311 176 34.7685 176.368 34.0844C176.741 33.4004 176.927 32.6526 176.927 31.8411C176.927 31.0344 176.741 30.2914 176.368 29.612C176 28.9279 175.491 28.3901 174.84 27.9985C174.189 27.6023 173.483 27.4041 172.724 27.4041C171.969 27.4041 171.266 27.5999 170.615 27.9915C169.964 28.3783 169.45 28.9161 169.072 29.6049C168.7 30.2937 168.513 31.0391 168.513 31.8411ZM171.684 32.3719V34.7638H170.686V28.7557H172.639C173.361 28.7557 173.92 28.9114 174.316 29.2228C174.717 29.5295 174.918 29.9776 174.918 30.5674C174.918 31.1476 174.616 31.5911 174.012 31.8978C174.587 32.1336 174.878 32.6149 174.882 33.3414V33.7731C174.882 34.1788 174.922 34.4713 175.003 34.6506V34.7638H173.976C173.91 34.594 173.877 34.292 173.877 33.858C173.877 33.4192 173.87 33.1598 173.856 33.0796C173.781 32.6267 173.472 32.3908 172.929 32.3719H171.684ZM171.684 31.4661H172.788C173.127 31.4567 173.401 31.3741 173.608 31.2184C173.816 31.0627 173.92 30.8575 173.92 30.6027C173.92 30.2583 173.828 30.0154 173.644 29.8739C173.46 29.7276 173.132 29.6545 172.66 29.6545H171.684V31.4661Z" fill="#2C78F6"/>
</svg>
