<svg width="24" height="24" viewBox="0 0 24 24" fill="none" xmlns="http://www.w3.org/2000/svg">
<path d="M22.4799 2.57812H1.47991C1.36205 2.57812 1.26562 2.67455 1.26562 2.79241V4.5067C1.26562 4.62455 1.36205 4.72098 1.47991 4.72098H22.4799C22.5978 4.72098 22.6942 4.62455 22.6942 4.5067V2.79241C22.6942 2.67455 22.5978 2.57812 22.4799 2.57812ZM22.4799 19.2924H1.47991C1.36205 19.2924 1.26562 19.3888 1.26562 19.5067V21.221C1.26562 21.3388 1.36205 21.4353 1.47991 21.4353H22.4799C22.5978 21.4353 22.6942 21.3388 22.6942 21.221V19.5067C22.6942 19.3888 22.5978 19.2924 22.4799 19.2924ZM22.4799 10.9353H1.47991C1.36205 10.9353 1.26562 11.0317 1.26562 11.1496V12.8638C1.26562 12.9817 1.36205 13.0781 1.47991 13.0781H22.4799C22.5978 13.0781 22.6942 12.9817 22.6942 12.8638V11.1496C22.6942 11.0317 22.5978 10.9353 22.4799 10.9353Z" fill="#5D5D5D"/>
</svg>
