<svg width="25" height="24" viewBox="0 0 25 24" fill="none" xmlns="http://www.w3.org/2000/svg">
<path d="M11.3334 19V9H4.33337V19H11.3334ZM11.3334 7V4C11.3334 3.73478 11.4387 3.48043 11.6263 3.29289C11.8138 3.10536 12.0682 3 12.3334 3H21.3334C21.5986 3 21.8529 3.10536 22.0405 3.29289C22.228 3.48043 22.3334 3.73478 22.3334 4V20C22.3334 20.2652 22.228 20.5196 22.0405 20.7071C21.8529 20.8946 21.5986 21 21.3334 21H3.33337C3.06816 21 2.8138 20.8946 2.62627 20.7071C2.43873 20.5196 2.33337 20.2652 2.33337 20V8C2.33337 7.73478 2.43873 7.48043 2.62627 7.29289C2.8138 7.10536 3.06816 7 3.33337 7H11.3334ZM13.3334 5V19H20.3334V5H13.3334ZM5.33337 16H10.3334V18H5.33337V16ZM14.3334 16H19.3334V18H14.3334V16ZM14.3334 13H19.3334V15H14.3334V13ZM14.3334 10H19.3334V12H14.3334V10ZM5.33337 13H10.3334V15H5.33337V13Z" fill="#606060"/>
</svg>
