<svg width="24" height="24" viewBox="0 0 24 24" fill="none" xmlns="http://www.w3.org/2000/svg">
<path d="M22.2345 10.6594C23.0622 10.6594 23.4078 9.59598 22.7354 9.1058L12.506 1.66473C12.3599 1.5577 12.1835 1.5 12.0024 1.5C11.8213 1.5 11.6449 1.5577 11.4988 1.66473L1.26936 9.1058C0.597041 9.5933 0.942577 10.6594 1.77293 10.6594H3.43097V20.6772H1.5024C1.38454 20.6772 1.28811 20.7737 1.28811 20.8915V22.2844C1.28811 22.4022 1.38454 22.4987 1.5024 22.4987H22.5024C22.6203 22.4987 22.7167 22.4022 22.7167 22.2844V20.8915C22.7167 20.7737 22.6203 20.6772 22.5024 20.6772H20.5738V10.6594H22.2345ZM12.0024 3.55312L19.264 8.83527H4.74079L12.0024 3.55312ZM5.35954 10.6594H8.49347V20.6772H5.35954V10.6594ZM10.422 10.6594H13.556V20.6772H10.422V10.6594ZM18.6453 20.6772H15.4845V10.6594H18.6453V20.6772Z" fill="#808080"/>
</svg>
