<svg width="24" height="24" viewBox="0 0 24 24" fill="none" xmlns="http://www.w3.org/2000/svg">
<path d="M4.26859 1.74221C5.01138 1.47722 5.81413 1.42852 6.5835 1.60176C7.35288 1.775 8.05728 2.16306 8.6148 2.72084C9.17233 3.27862 9.56008 3.98319 9.73298 4.75264C9.90587 5.52209 9.85681 6.32482 9.59149 7.06749L22.5 19.976L19.9742 22.5006L7.06573 9.59325C6.32295 9.85823 5.5202 9.90694 4.75082 9.7337C3.98145 9.56046 3.27705 9.17239 2.71952 8.61461C2.16199 8.05684 1.77424 7.35227 1.60135 6.58281C1.42845 5.81336 1.47752 5.01063 1.74283 4.26797L4.40428 6.93061C4.56898 7.10113 4.76599 7.23715 4.98382 7.33072C5.20165 7.42429 5.43593 7.47354 5.67299 7.4756C5.91006 7.47766 6.14516 7.43249 6.36458 7.34272C6.584 7.25294 6.78335 7.12037 6.95098 6.95274C7.11862 6.7851 7.25119 6.58575 7.34096 6.36633C7.43074 6.14691 7.47591 5.91181 7.47385 5.67475C7.47179 5.43768 7.42254 5.2034 7.32897 4.98557C7.23539 4.76775 7.09938 4.57074 6.92885 4.40604L4.2674 1.74102L4.26859 1.74221ZM16.6081 3.98468L20.3956 1.88028L22.0786 3.56332L19.9742 7.35077L17.8698 7.77213L15.3465 10.2967L13.6622 8.61365L16.1868 6.08908L16.6081 3.98468ZM8.19173 13.2426L10.7163 15.7684L4.82445 21.6602C4.49955 21.9821 4.06353 22.167 3.6063 22.1768C3.14908 22.1867 2.70551 22.0207 2.36708 21.7131C2.02864 21.4055 1.82115 20.9797 1.78739 20.5236C1.75362 20.0676 1.89616 19.6159 2.18561 19.2618L2.30107 19.1345L8.19292 13.2426H8.19173Z" fill="#808080"/>
</svg>
