<svg width="24" height="24" viewBox="0 0 24 24" fill="none" xmlns="http://www.w3.org/2000/svg">
<path d="M23.0571 8.61763C22.4548 7.19185 21.5815 5.89649 20.4857 4.80335C19.3926 3.70757 18.0972 2.83429 16.6714 2.23192C15.1902 1.60513 13.6205 1.28906 12 1.28906C10.3795 1.28906 8.80982 1.60513 7.32857 2.23192C5.90279 2.83429 4.60743 3.70757 3.51429 4.80335C2.4185 5.89649 1.54523 7.19185 0.942857 8.61763C0.316071 10.0989 0 11.6685 0 13.2891C0 16.8435 1.56161 20.1917 4.28304 22.4792L4.32857 22.5167C4.48393 22.6453 4.67946 22.7176 4.88036 22.7176H19.1223C19.3232 22.7176 19.5187 22.6453 19.6741 22.5167L19.7196 22.4792C22.4384 20.1917 24 16.8435 24 13.2891C24 11.6685 23.6812 10.0989 23.0571 8.61763ZM18.6804 20.6819H5.31964C4.28463 19.7487 3.45741 18.6083 2.89167 17.3346C2.32593 16.061 2.0343 14.6827 2.03571 13.2891C2.03571 10.6266 3.07232 8.12478 4.95536 6.24442C6.83839 4.36138 9.34018 3.32478 12 3.32478C14.6625 3.32478 17.1643 4.36138 19.0446 6.24442C20.9277 8.12746 21.9643 10.6292 21.9643 13.2891C21.9643 16.1176 20.7723 18.7935 18.6804 20.6819ZM14.9866 9.57924C14.9463 9.53936 14.8919 9.51699 14.8353 9.51699C14.7786 9.51699 14.7242 9.53936 14.6839 9.57924L12.4205 11.8426C11.9196 11.7087 11.3652 11.8373 10.9714 12.231C10.832 12.3702 10.7213 12.5356 10.6458 12.7176C10.5703 12.8996 10.5315 13.0947 10.5315 13.2917C10.5315 13.4888 10.5703 13.6839 10.6458 13.8659C10.7213 14.0479 10.832 14.2133 10.9714 14.3525C11.1106 14.4919 11.276 14.6026 11.458 14.6781C11.64 14.7535 11.8351 14.7924 12.0321 14.7924C12.2292 14.7924 12.4243 14.7535 12.6063 14.6781C12.7883 14.6026 12.9537 14.4919 13.0929 14.3525C13.2794 14.1665 13.4136 13.9345 13.4818 13.6801C13.55 13.4256 13.5498 13.1577 13.4812 12.9033L15.7446 10.64C15.8277 10.5569 15.8277 10.4203 15.7446 10.3373L14.9866 9.57924ZM11.4107 6.86049H12.5893C12.7071 6.86049 12.8036 6.76406 12.8036 6.64621V4.50335C12.8036 4.38549 12.7071 4.28906 12.5893 4.28906H11.4107C11.2929 4.28906 11.1964 4.38549 11.1964 4.50335V6.64621C11.1964 6.76406 11.2929 6.86049 11.4107 6.86049ZM18.375 12.6998V13.8783C18.375 13.9962 18.4714 14.0926 18.5893 14.0926H20.7321C20.85 14.0926 20.9464 13.9962 20.9464 13.8783V12.6998C20.9464 12.5819 20.85 12.4855 20.7321 12.4855H18.5893C18.4714 12.4855 18.375 12.5819 18.375 12.6998ZM18.7152 7.41763L17.8821 6.5846C17.8419 6.54472 17.7875 6.52235 17.7308 6.52235C17.6741 6.52235 17.6197 6.54472 17.5795 6.5846L16.0634 8.10067C16.0235 8.14094 16.0011 8.19533 16.0011 8.25201C16.0011 8.30869 16.0235 8.36307 16.0634 8.40335L16.8964 9.23638C16.9795 9.31942 17.1161 9.31942 17.1991 9.23638L18.7152 7.72031C18.7982 7.63728 18.7982 7.50067 18.7152 7.41763ZM6.43125 6.5846C6.39098 6.54472 6.33659 6.52235 6.27991 6.52235C6.22323 6.52235 6.16885 6.54472 6.12857 6.5846L5.29554 7.41763C5.25566 7.45791 5.23329 7.5123 5.23329 7.56897C5.23329 7.62565 5.25566 7.68004 5.29554 7.72031L6.81161 9.23638C6.89464 9.31942 7.03125 9.31942 7.11429 9.23638L7.94732 8.40335C8.03036 8.32031 8.03036 8.18371 7.94732 8.10067L6.43125 6.5846ZM5.30357 12.4855H3.16071C3.04286 12.4855 2.94643 12.5819 2.94643 12.6998V13.8783C2.94643 13.9962 3.04286 14.0926 3.16071 14.0926H5.30357C5.42143 14.0926 5.51786 13.9962 5.51786 13.8783V12.6998C5.51786 12.5819 5.42143 12.4855 5.30357 12.4855Z" fill="#2C78F6"/>
</svg>
