<svg width="18" height="18" viewBox="0 0 18 18" fill="none" xmlns="http://www.w3.org/2000/svg">
<path d="M16.9569 5.80933L11.8563 5.06803L9.57613 0.445487C9.51385 0.318925 9.4114 0.216469 9.28483 0.154193C8.96742 -0.00250372 8.58171 0.128077 8.423 0.445487L6.14287 5.06803L1.0422 5.80933C0.901576 5.82942 0.773004 5.89571 0.674567 5.99616C0.555561 6.11847 0.489984 6.28303 0.492244 6.45367C0.494504 6.62432 0.564417 6.78708 0.68662 6.9062L4.37702 10.5042L3.50515 15.5848C3.4847 15.703 3.49778 15.8245 3.5429 15.9356C3.58802 16.0468 3.66337 16.143 3.76042 16.2135C3.85746 16.284 3.97232 16.3259 4.09195 16.3344C4.21159 16.3429 4.33123 16.3178 4.43729 16.2618L8.99957 13.8631L13.5618 16.2618C13.6864 16.3281 13.831 16.3502 13.9697 16.3261C14.3192 16.2658 14.5543 15.9343 14.494 15.5848L13.6221 10.5042L17.3125 6.9062C17.413 6.80776 17.4793 6.67919 17.4993 6.53857C17.5536 6.18701 17.3085 5.86156 16.9569 5.80933ZM12.0692 9.99794L12.7944 14.2227L8.99957 12.2299L5.2047 14.2247L5.92992 9.99995L2.86028 7.00665L7.10314 6.38991L8.99957 2.54683L10.896 6.38991L15.1389 7.00665L12.0692 9.99794Z" fill="#D0D0D0"/>
</svg>
