<svg width="24" height="24" viewBox="0 0 24 24" fill="none" xmlns="http://www.w3.org/2000/svg">
<rect width="24" height="24" fill="white"/>
<path d="M15.2344 22.0714H8.8058C8.68795 22.0714 8.59152 22.1679 8.59152 22.2857V23.1429C8.59152 23.617 8.97455 24 9.44866 24H14.5915C15.0656 24 15.4487 23.617 15.4487 23.1429V22.2857C15.4487 22.1679 15.3522 22.0714 15.2344 22.0714ZM12.0201 0C7.1692 0 3.23438 3.93482 3.23438 8.78571C3.23438 12.0375 5.00223 14.8768 7.62723 16.3955V19.5C7.62723 19.9741 8.01027 20.3571 8.48438 20.3571H15.5558C16.0299 20.3571 16.4129 19.9741 16.4129 19.5V16.3955C19.0379 14.8768 20.8058 12.0375 20.8058 8.78571C20.8058 3.93482 16.871 0 12.0201 0ZM15.446 14.7268L14.4844 15.2839V18.4286H9.5558V15.2839L8.5942 14.7268C6.48616 13.508 5.16295 11.2634 5.16295 8.78571C5.16295 4.99821 8.23259 1.92857 12.0201 1.92857C15.8076 1.92857 18.8772 4.99821 18.8772 8.78571C18.8772 11.2634 17.554 13.508 15.446 14.7268Z" fill="#808080"/>
</svg>
