<svg width="18" height="18" viewBox="0 0 18 18" fill="none" xmlns="http://www.w3.org/2000/svg">
<path d="M13.829 12.0536C13.2564 12.0536 12.7281 12.2545 12.3142 12.59L8.15173 9.57857C8.22143 9.19601 8.22143 8.804 8.15173 8.42143L12.3142 5.41004C12.7281 5.74554 13.2564 5.94643 13.829 5.94643C15.1589 5.94643 16.2397 4.86563 16.2397 3.53571C16.2397 2.2058 15.1589 1.125 13.829 1.125C12.4991 1.125 11.4182 2.2058 11.4182 3.53571C11.4182 3.76875 11.4504 3.99174 11.5127 4.20469L7.5591 7.06741C6.97249 6.28996 6.04035 5.78571 4.98968 5.78571C3.21378 5.78571 1.77539 7.22411 1.77539 9C1.77539 10.7759 3.21378 12.2143 4.98968 12.2143C6.04035 12.2143 6.97249 11.71 7.5591 10.9326L11.5127 13.7953C11.4504 14.0083 11.4182 14.2333 11.4182 14.4643C11.4182 15.7942 12.4991 16.875 13.829 16.875C15.1589 16.875 16.2397 15.7942 16.2397 14.4643C16.2397 13.1344 15.1589 12.0536 13.829 12.0536ZM13.829 2.49107C14.4055 2.49107 14.8736 2.95915 14.8736 3.53571C14.8736 4.11228 14.4055 4.58036 13.829 4.58036C13.2524 4.58036 12.7843 4.11228 12.7843 3.53571C12.7843 2.95915 13.2524 2.49107 13.829 2.49107ZM4.98968 10.7679C4.01535 10.7679 3.22182 9.97433 3.22182 9C3.22182 8.02567 4.01535 7.23214 4.98968 7.23214C5.96401 7.23214 6.75753 8.02567 6.75753 9C6.75753 9.97433 5.96401 10.7679 4.98968 10.7679ZM13.829 15.5089C13.2524 15.5089 12.7843 15.0408 12.7843 14.4643C12.7843 13.8877 13.2524 13.4196 13.829 13.4196C14.4055 13.4196 14.8736 13.8877 14.8736 14.4643C14.8736 15.0408 14.4055 15.5089 13.829 15.5089Z" fill="#D0D0D0"/>
</svg>
