<svg width="24" height="24" viewBox="0 0 24 24" fill="none" xmlns="http://www.w3.org/2000/svg">
<path d="M21.8371 1.28906H2.12277C1.64866 1.28906 1.26562 1.6721 1.26562 2.14621V21.8605C1.26562 22.3346 1.64866 22.7176 2.12277 22.7176H21.8371C22.3112 22.7176 22.6942 22.3346 22.6942 21.8605V2.14621C22.6942 1.6721 22.3112 1.28906 21.8371 1.28906ZM20.7656 13.7176H12.4085V10.2891H20.7656V13.7176ZM20.7656 20.7891H3.1942V3.21763H20.7656V8.57478H11.5513C11.0772 8.57478 10.6942 8.95781 10.6942 9.43192V14.5748C10.6942 15.0489 11.0772 15.4319 11.5513 15.4319H20.7656V20.7891ZM13.8013 12.0033C13.8013 12.2875 13.9142 12.56 14.1152 12.761C14.3161 12.9619 14.5886 13.0748 14.8728 13.0748C15.1569 13.0748 15.4295 12.9619 15.6304 12.761C15.8313 12.56 15.9442 12.2875 15.9442 12.0033C15.9442 11.7192 15.8313 11.4467 15.6304 11.2457C15.4295 11.0448 15.1569 10.9319 14.8728 10.9319C14.5886 10.9319 14.3161 11.0448 14.1152 11.2457C13.9142 11.4467 13.8013 11.7192 13.8013 12.0033Z" fill="#5D5D5D"/>
</svg>
